<svg xmlns="http://www.w3.org/2000/svg" width="951" height="444" viewBox="0 0 317 148">
  <defs>
    <style>
      .cls-1 {
        fill: #a9acae;
      }

      .cls-1, .cls-2 {
        fill-rule: evenodd;
      }

      .cls-2 {
        fill: #2faef6;
      }
    </style>
  </defs>
  <path id="em" class="cls-1" d="M41.37,39.832A28.091,28.091,0,0,1,44.424,26.16q3.055-5.468,8.825-5.469a10.415,10.415,0,0,1,8.994,4.98q3.393,5.079,3.394,12.793,0,0.392-.17,3.32H41.455q-0.086-.879-0.085-1.953h0Zm14.51,37.3q-14.681,0-14.934-23.047h64.829q-0.936-27.733-15.359-41.309Q75.734-.89,52.4-0.891q-24.269,0-38.439,14.453Q-0.379,28.016-.378,49.7q0,22.17,14.51,35.84Q28.642,99.3,57.407,99.3q17.139,0,29.444-7.617A41.739,41.739,0,0,0,97.2,82.947a38.331,38.331,0,0,0,6.619-11.377L68.608,66.59Q64.7,77.137,55.88,77.137h0ZM185.536,66.785H174V38.172q7.21-6.054,13.746-6.055,5.684,0,7.552,4.1,1.866,4.2,1.867,19.824V96.57h54.306V66.785H239.842V38.172q7.042-6.054,14-6.055,5.514,0,7.637,3.906T263.6,55.848V96.57h53.543V66.785H306.282V45.4q0-16.6-2.97-25.781A28.316,28.316,0,0,0,293.3,5.359Q286.342,0.086,275.565.086q-19.686,0-38.608,18.555Q229.829,0.087,208.871.086A46.187,46.187,0,0,0,190.033,4.48,54.076,54.076,0,0,0,174,14.832V1.844H120.877V31.629H131.23V66.785H121.047V96.57h64.489V66.785Z"/>
  <path id="web_mobile" data-name="web &amp; mobile" class="cls-2" d="M24.034,146.852h0.553l7.376-19.019,7.38,19.019h0.551L49.92,120.289H46.832l-7.211,19.287-7.414-19.287H31.669L24.3,139.576,17.23,120.289H14.175ZM70.3,141.808a8.818,8.818,0,0,1-2.835,1.872,8.71,8.71,0,0,1-3.43.706,7.712,7.712,0,0,1-6.138-2.96,11.747,11.747,0,0,1-2.57-7.587H76.1a15.871,15.871,0,0,0-2.548-9.082,10.9,10.9,0,0,0-9.427-5.152,10.56,10.56,0,0,0-9.151,5.03,16.27,16.27,0,0,0,.489,18.64,10.409,10.409,0,0,0,8.833,4.26,10.715,10.715,0,0,0,8.2-3.491,15.794,15.794,0,0,0,2.845-4.492l-2.5-1.514A15.829,15.829,0,0,1,70.3,141.808ZM55.626,130.885a11.853,11.853,0,0,1,2.7-5.493,7.856,7.856,0,0,1,5.841-2.515,8.213,8.213,0,0,1,3.929,1,8.444,8.444,0,0,1,3.005,2.637,12.178,12.178,0,0,1,1.731,4.37h-17.2Zm29.168,15.967v-4.883a12.672,12.672,0,0,0,4.048,4.175,9.643,9.643,0,0,0,5.107,1.391,10.723,10.723,0,0,0,8.414-4.077,14.6,14.6,0,0,0,3.5-9.839,14.835,14.835,0,0,0-3.466-9.924,10.6,10.6,0,0,0-8.36-4.09,10.111,10.111,0,0,0-5.065,1.307,13.083,13.083,0,0,0-4.175,3.942V110.035h-2.97v36.817h2.97Zm2.423-5.713a11.5,11.5,0,0,1-2.635-7.715,12.3,12.3,0,0,1,1.175-5.445,9.4,9.4,0,0,1,3.365-3.845,8.331,8.331,0,0,1,4.624-1.428,7.87,7.87,0,0,1,4.5,1.428,9.972,9.972,0,0,1,3.355,3.992,12.28,12.28,0,0,1,.01,10.767,9.758,9.758,0,0,1-3.333,3.942,8.038,8.038,0,0,1-4.571,1.4A8.193,8.193,0,0,1,87.217,141.139Zm56.249-3.951-3.1-3.618-4.73-5.713a24.525,24.525,0,0,0,4.354-5.212,8.107,8.107,0,0,0,1.1-3.845,6.554,6.554,0,0,0-.849-3.235,6.223,6.223,0,0,0-2.46-2.429,7.17,7.17,0,0,0-3.564-.9,7.08,7.08,0,0,0-5.176,2.05,5.941,5.941,0,0,0-1.8,4.442,8.173,8.173,0,0,0,.73,3.233,32.932,32.932,0,0,0,3.3,5.259,29.832,29.832,0,0,0-6.01,6.826,11.156,11.156,0,0,0-1.473,5.385,8.462,8.462,0,0,0,2.185,5.947,7.484,7.484,0,0,0,5.791,2.381,12.406,12.406,0,0,0,5.155-1.1,26.545,26.545,0,0,0,6.339-4.713l4.139,4.909h4.35q-1.164-1.568-2.779-3.418-2.048-2.355-3.322-3.7a50.191,50.191,0,0,0,3.866-3.583L147.4,133.57a50.947,50.947,0,0,1-3.929,3.618h0Zm-12.7-16.557a4.049,4.049,0,0,1-.426-1.831,2.85,2.85,0,0,1,1.042-2.2,3.911,3.911,0,0,1,2.7-.928,4.148,4.148,0,0,1,2.8.9,2.746,2.746,0,0,1,1.053,2.149,5.06,5.06,0,0,1-.807,2.465,17.07,17.07,0,0,1-3.422,3.98,28.945,28.945,0,0,1-2.939-4.541h0Zm5.4,12.908,4.922,5.837a26.121,26.121,0,0,1-5.749,4.228,7.3,7.3,0,0,1-3.252.782,4.921,4.921,0,0,1-3.7-1.576,5.09,5.09,0,0,1-1.509-3.627,7.4,7.4,0,0,1,1.233-3.774,27.108,27.108,0,0,1,5.211-5.483q1.569,2.075,2.842,3.613h0Zm32.016,13.313h2.97V135.6a23.659,23.659,0,0,1,.859-7.4,8.365,8.365,0,0,1,2.652-3.845,6.065,6.065,0,0,1,3.85-1.428,4.77,4.77,0,0,1,3.076,1.037,5.461,5.461,0,0,1,1.814,2.759,26.746,26.746,0,0,1,.52,6.531v13.6h2.97v-10.4a28.275,28.275,0,0,1,.824-8.154,8.385,8.385,0,0,1,2.611-3.906,6.075,6.075,0,0,1,3.944-1.465,4.894,4.894,0,0,1,3.055.976,5.221,5.221,0,0,1,1.807,2.576,21.646,21.646,0,0,1,.529,5.872v14.5H202.7v-14.5a23.622,23.622,0,0,0-.889-7.471A8.18,8.18,0,0,0,199.09,121a6.782,6.782,0,0,0-4.222-1.392,7.956,7.956,0,0,0-4.783,1.624,12.173,12.173,0,0,0-3.7,4.749,11.434,11.434,0,0,0-1.657-3.6,7.2,7.2,0,0,0-5.649-2.771,8.183,8.183,0,0,0-4.736,1.563,12.508,12.508,0,0,0-3.186,3.711v-4.59h-2.97v26.563Zm42.836-22.779a15.844,15.844,0,0,0,.181,19.3,11.111,11.111,0,0,0,17.34,0,15.883,15.883,0,0,0,.181-19.324,11.018,11.018,0,0,0-17.7.024h0Zm15.2,2.027a11.379,11.379,0,0,1,2.672,7.617,12.111,12.111,0,0,1-1.213,5.371,9.383,9.383,0,0,1-3.279,3.845,8.265,8.265,0,0,1-9.069,0,9.388,9.388,0,0,1-3.278-3.845,12.1,12.1,0,0,1-1.213-5.371,11.411,11.411,0,0,1,2.66-7.617A8,8,0,0,1,226.225,126.1Zm14.339,20.752v-4.883a12.675,12.675,0,0,0,4.048,4.175,9.643,9.643,0,0,0,5.107,1.391,10.72,10.72,0,0,0,8.413-4.077,14.6,14.6,0,0,0,3.5-9.839,14.834,14.834,0,0,0-3.465-9.924,10.6,10.6,0,0,0-8.36-4.09,10.111,10.111,0,0,0-5.065,1.307,13.084,13.084,0,0,0-4.175,3.942V110.035H237.6v36.817h2.969Zm2.423-5.713a11.5,11.5,0,0,1-2.635-7.715,12.3,12.3,0,0,1,1.175-5.445,9.4,9.4,0,0,1,3.365-3.845,8.331,8.331,0,0,1,4.625-1.428,7.87,7.87,0,0,1,4.5,1.428,9.962,9.962,0,0,1,3.354,3.992,12.275,12.275,0,0,1,.011,10.767,9.771,9.771,0,0,1-3.333,3.942,8.04,8.04,0,0,1-4.572,1.4A8.193,8.193,0,0,1,242.987,141.139Zm23.37-30.957a2.953,2.953,0,0,0-.718,2,2.919,2.919,0,0,0,.718,1.977,2.2,2.2,0,0,0,3.442,0,2.92,2.92,0,0,0,.719-1.977,2.954,2.954,0,0,0-.719-2A2.2,2.2,0,0,0,266.357,110.182Zm0.236,36.67h2.97V120.289h-2.97v26.563Zm8.7,0h2.97V110.035h-2.97v36.817Zm26.046-5.044a8.8,8.8,0,0,1-2.835,1.872,8.712,8.712,0,0,1-3.43.706,7.713,7.713,0,0,1-6.138-2.96,11.743,11.743,0,0,1-2.57-7.587h20.768a15.868,15.868,0,0,0-2.548-9.082,10.9,10.9,0,0,0-9.427-5.152,10.56,10.56,0,0,0-9.151,5.03,16.269,16.269,0,0,0,.488,18.64,10.411,10.411,0,0,0,8.833,4.26,10.716,10.716,0,0,0,8.2-3.491,15.79,15.79,0,0,0,2.845-4.492l-2.5-1.514A15.82,15.82,0,0,1,301.337,141.808Zm-14.676-10.923a11.853,11.853,0,0,1,2.7-5.493,7.855,7.855,0,0,1,5.84-2.515,8.216,8.216,0,0,1,3.93,1,8.445,8.445,0,0,1,3,2.637,12.165,12.165,0,0,1,1.731,4.37h-17.2Z"/>
</svg>
